<mxfile host="app.diagrams.net" agent="Mozilla/5.0 (Windows NT 10.0; Win64; x64) AppleWebKit/537.36 (KHTML, like Gecko) Chrome/127.0.0.0 Safari/537.36 Edg/127.0.0.0" version="24.7.10">
  <diagram name="Page-1" id="srkXY49e54_X8T3v7GeB">
    <mxGraphModel dx="1426" dy="791" grid="1" gridSize="10" guides="1" tooltips="1" connect="1" arrows="1" fold="1" page="1" pageScale="1" pageWidth="850" pageHeight="1100" math="0" shadow="0">
      <root>
        <mxCell id="0" />
        <mxCell id="1" parent="0" />
        <mxCell id="NG0uHof52wUYsZxvYM7U-1" value="" style="ellipse;whiteSpace=wrap;html=1;" vertex="1" parent="1">
          <mxGeometry x="370" y="120" width="190" height="80" as="geometry" />
        </mxCell>
        <mxCell id="NG0uHof52wUYsZxvYM7U-2" value="" style="ellipse;whiteSpace=wrap;html=1;" vertex="1" parent="1">
          <mxGeometry x="400" y="570" width="190" height="80" as="geometry" />
        </mxCell>
        <mxCell id="NG0uHof52wUYsZxvYM7U-3" value="input:vehicleType" style="shape=parallelogram;perimeter=parallelogramPerimeter;whiteSpace=wrap;html=1;fixedSize=1;" vertex="1" parent="1">
          <mxGeometry x="370" y="240" width="190" height="60" as="geometry" />
        </mxCell>
        <mxCell id="NG0uHof52wUYsZxvYM7U-4" value="input:hour" style="shape=parallelogram;perimeter=parallelogramPerimeter;whiteSpace=wrap;html=1;fixedSize=1;" vertex="1" parent="1">
          <mxGeometry x="360" y="330" width="190" height="60" as="geometry" />
        </mxCell>
        <mxCell id="NG0uHof52wUYsZxvYM7U-5" value="vehicleType is &quot;Private Car&quot;" style="rhombus;whiteSpace=wrap;html=1;" vertex="1" parent="1">
          <mxGeometry x="360" y="440" width="180" height="80" as="geometry" />
        </mxCell>
        <mxCell id="NG0uHof52wUYsZxvYM7U-6" value="parkingFee=hour*15" style="rounded=0;whiteSpace=wrap;html=1;" vertex="1" parent="1">
          <mxGeometry x="580" y="470" width="230" height="60" as="geometry" />
        </mxCell>
      </root>
    </mxGraphModel>
  </diagram>
</mxfile>
